####
#
# OBJ File Generated by Meshlab
#
####
# Object Base.obj
#
# Vertices: 185
# Faces: 366
#
####
vn 0.127252 -0.311714 -0.003009
v 0.061407 -0.071012 0.000000
vn 0.418430 -1.024979 -0.009895
v 0.010704 -0.091991 0.029045
vn 0.641642 -1.571756 -0.015174
v 0.010190 -0.092001 0.008373
vn 0.026367 -0.042985 0.046674
v 0.021830 -0.075443 0.038000
vn 0.558854 -0.911060 0.989249
v 0.009506 -0.091759 0.029935
vn -0.029801 0.593562 -0.001772
v -0.055999 0.072279 0.000000
vn -0.047943 0.954904 -0.002852
v -0.002214 0.075088 0.036398
vn -0.079787 1.589161 -0.004746
v -0.002949 0.074942 0.000000
vn 1.456314 0.000000 -0.001704
v 0.074942 -0.002949 0.000000
vn 1.530571 0.000000 -0.001791
v 0.074942 0.002949 0.000000
vn 0.154705 0.000000 -0.000181
v 0.074986 0.001420 0.038000
vn 0.606859 0.030469 0.000516
v 0.072279 0.055999 0.000000
vn 1.958414 0.099709 0.003652
v 0.072226 0.056594 0.012000
vn 1.374555 0.208597 -0.004314
v 0.071860 0.058753 0.000000
vn 2.548075 -0.386686 0.484089
v 0.072279 -0.055999 0.012000
vn 0.024109 -0.003659 0.004580
v 0.074394 -0.009508 0.038000
vn 0.480468 -0.072914 0.091280
v 0.071860 -0.058753 0.012000
vn 0.798606 -2.498478 -1.378054
v 0.058753 -0.071860 0.000000
vn 0.715709 -1.729756 0.000000
v 0.061407 -0.071012 0.012000
vn 0.000000 -0.246619 0.481925
v -0.019935 -0.076000 0.038000
vn 0.000000 -0.473048 0.924398
v 0.019935 -0.076000 0.038000
vn -0.002714 -0.018841 0.033092
v -0.010044 -0.091995 0.029704
vn -0.064331 -0.446628 0.784447
v -0.020923 -0.075858 0.038000
vn 0.110078 -0.166510 0.170937
v 0.043034 -0.061425 0.038000
vn 0.064605 -0.086042 0.079600
v 0.066151 -0.068121 0.012000
vn 0.896632 -1.194144 1.104744
v 0.046976 -0.058465 0.038000
vn 0.061913 -0.429839 0.759895
v 0.020923 -0.075858 0.038000
vn 0.000000 0.185746 -0.000878
v 0.001313 0.075091 0.031611
vn 0.000000 1.519073 -0.007178
v 0.002949 0.074942 0.000000
vn 1.269596 0.641750 -0.006023
v 0.069755 0.063894 0.000000
vn 0.206082 0.104170 -0.000978
v 0.070609 0.062318 0.012000
vn 1.328055 0.671299 -0.006301
v 0.071012 0.061407 0.000000
vn 1.477448 0.284591 0.006228
v 0.071661 0.059525 0.012000
vn 0.031842 0.006133 0.008317
v 0.073134 0.016624 0.038000
vn 0.937912 1.112652 0.007673
v 0.067175 0.067175 0.012000
vn 0.159483 0.189195 0.001305
v 0.066151 0.068121 0.000000
vn 0.927379 1.100157 0.007587
v 0.064893 0.069099 0.012000
vn -0.037648 -0.002225 0.000696
v -0.072226 -0.056594 0.012000
vn -2.655042 -0.156903 0.049053
v -0.074683 -0.006881 0.038000
vn -0.442898 -0.026174 0.008183
v -0.074974 -0.001957 0.038000
vn -0.239393 -0.046112 0.000000
v -0.072226 -0.056594 0.000000
vn -1.303051 -0.250993 0.000000
v -0.071661 -0.059525 0.012000
vn -0.607518 -0.228930 0.325889
v -0.070609 -0.062318 0.012000
vn -0.039856 -0.015019 0.021380
v -0.069942 -0.027076 0.038000
vn -0.228127 -0.085965 0.000000
v -0.070609 -0.062318 0.000000
vn 0.000000 -0.720118 -1.404935
v 0.009000 -0.091690 0.008042
vn 0.000000 -0.249615 -0.486994
v -0.019935 -0.076000 0.000000
vn 0.000000 -0.463258 -0.903807
v 0.019935 -0.076000 0.000000
vn 0.016325 -0.158201 -0.286448
v 0.055999 -0.072279 0.000000
vn 0.518645 -0.121108 0.171826
v 0.073609 -0.014377 0.038000
vn 2.335525 -0.545364 0.773754
v 0.072366 -0.019700 0.038000
vn 2.120668 -0.661486 0.952353
v 0.070735 -0.024929 0.038000
vn 0.461745 -0.041922 0.037387
v 0.074890 -0.004048 0.038000
vn 0.630140 -0.031637 -0.000052
v 0.072279 -0.055999 0.000000
vn 0.866515 -1.008461 1.013574
v 0.050719 -0.055249 0.038000
vn 0.814941 -0.825189 0.892230
v 0.054615 -0.051401 0.038000
vn -0.069713 -0.096861 0.087399
v -0.064893 -0.069099 0.012000
vn -0.534448 -0.742575 0.670033
v -0.041559 -0.062433 0.038000
vn -0.876431 -1.217734 1.098774
v -0.045997 -0.059239 0.038000
vn -0.007187 -0.987700 1.903858
v -0.009000 -0.091500 0.030000
vn -2.510821 0.381033 0.477770
v -0.072279 0.055999 0.012000
vn -0.027341 0.004149 0.005203
v -0.073810 0.013309 0.038000
vn -0.514319 0.078051 0.097867
v -0.071860 0.058753 0.012000
vn -1.442394 0.000000 -0.001228
v -0.074942 0.002949 0.000000
vn -1.544684 0.000000 -0.001315
v -0.074942 -0.002949 0.000000
vn 1.634575 0.833658 1.147808
v 0.065521 0.036497 0.038000
vn 0.652922 0.333000 0.458486
v 0.068006 0.031623 0.038000
vn 0.512734 0.096978 0.131178
v 0.074152 0.011240 0.038000
vn 0.594260 0.250371 0.355064
v 0.070135 0.026571 0.038000
vn 1.269473 0.744422 0.007470
v 0.069099 0.064893 0.012000
vn 1.028981 1.028981 -0.006696
v 0.068121 0.066151 0.000000
vn 0.803798 0.747119 0.843587
v 0.056752 0.049032 0.038000
vn 0.925108 0.859874 0.970901
v 0.053033 0.053033 0.038000
vn 0.791413 0.634904 0.763146
v 0.060170 0.044772 0.038000
vn 0.228226 1.503898 -0.004720
v 0.055999 0.072279 0.000000
vn 0.034534 0.227562 -0.000714
v 0.056594 0.072226 0.012000
vn 0.208597 1.374555 -0.004314
v 0.058753 0.071860 0.000000
vn -2.553986 -0.329655 0.388913
v -0.073983 -0.012310 0.038000
vn -2.432943 -0.487398 0.667880
v -0.073015 -0.017142 0.038000
vn -1.651091 -0.834590 1.150546
v -0.065787 -0.036014 0.038000
vn -0.653561 -0.330360 0.455427
v -0.068012 -0.031612 0.038000
vn -2.250775 -0.607210 0.872672
v -0.071730 -0.021904 0.038000
vn -1.542447 -0.297111 -0.000001
v -0.071661 -0.059525 0.000000
vn 0.598716 -0.191368 0.274875
v 0.071012 -0.061407 0.012000
vn 0.042829 -0.021650 0.029677
v 0.066855 -0.033991 0.038000
vn 0.666369 -0.336841 0.461736
v 0.069755 -0.063894 0.012000
vn 0.217317 -0.069461 0.000000
v 0.071860 -0.058753 0.000000
vn 1.496226 -0.478250 -0.000002
v 0.071012 -0.061407 0.000000
vn 0.097468 -0.085263 0.099000
v 0.068121 -0.066151 0.012000
vn 0.801478 -0.701113 0.814072
v 0.058215 -0.047286 0.038000
vn 0.744208 -0.564746 0.693307
v 0.061197 -0.043356 0.038000
vn 0.129791 -0.256771 0.070052
v 0.063894 -0.069755 0.012000
vn -0.168460 -0.368392 0.495705
v -0.021830 -0.075443 0.038000
vn -0.854786 -1.032532 1.012808
v -0.049612 -0.056246 0.038000
vn -0.099450 -0.079773 0.095889
v -0.069099 -0.064893 0.012000
vn -1.067780 -0.856508 1.029547
v -0.056755 -0.049029 0.038000
vn -0.791261 -0.634701 0.762929
v -0.060176 -0.044764 0.038000
vn -0.731430 -0.507644 0.644029
v -0.062987 -0.040714 0.038000
vn 0.001438 -0.498670 0.004223
v 0.008700 -0.092000 0.028700
vn 0.006996 -2.425585 0.020544
v 0.009332 -0.092000 0.028485
vn -0.000173 -2.405421 -0.000580
v -0.009294 -0.092000 0.009486
vn -0.000050 -0.689335 -0.000166
v -0.010412 -0.092000 0.008584
vn -0.456882 2.458382 0.618068
v -0.016121 0.073247 0.038000
vn -0.091723 0.493542 0.124083
v -0.011279 0.074147 0.038000
vn -0.008649 0.046541 0.011701
v -0.058753 0.071860 0.012000
vn -0.047539 0.047539 0.051616
v -0.051908 0.054135 0.038000
vn -0.884122 0.884121 0.959946
v -0.066151 0.068121 0.012000
vn -0.830367 0.830367 0.901581
v -0.068121 0.066151 0.012000
vn -0.852901 0.832878 0.916794
v -0.055351 0.050608 0.038000
vn -0.796673 0.681650 0.798774
v -0.058558 0.046861 0.038000
vn -0.495197 0.072553 0.089966
v -0.074525 0.008429 0.038000
vn -1.763030 0.801495 1.125435
v -0.067100 0.033505 0.038000
vn -0.080611 0.036647 0.051458
v -0.071012 0.061407 0.012000
vn -0.629083 0.285989 0.401577
v -0.069363 0.028527 0.038000
vn -0.716309 0.458155 0.596231
v -0.064475 0.038314 0.038000
vn -1.365737 0.873533 1.136793
v -0.061818 0.042468 0.038000
vn -0.084864 0.054279 0.070638
v -0.069755 0.063894 0.012000
vn 2.661050 0.138005 0.010316
v 0.074731 0.006340 0.038000
vn 0.581506 0.198752 0.286050
v 0.071730 0.021904 0.038000
vn 0.731459 0.507873 0.644247
v 0.062984 0.040718 0.038000
vn 0.671299 1.328055 -0.006301
v 0.061407 0.071012 0.000000
vn 0.104170 0.206082 -0.000978
v 0.062318 0.070609 0.012000
vn 0.641750 1.269596 -0.006023
v 0.063894 0.069755 0.000000
vn 0.044717 0.053048 0.052469
v 0.047672 0.057899 0.038000
vn 0.587537 0.769077 0.720435
v 0.043323 0.061222 0.038000
vn 0.030054 0.051251 0.039868
v 0.039209 0.063935 0.038000
vn 0.005774 0.029976 0.007784
v 0.014872 0.073511 0.038000
vn 0.100004 0.519167 0.134821
v 0.059525 0.071661 0.012000
vn 0.641865 -0.300186 0.419166
v 0.068943 -0.029527 0.038000
vn -0.076904 -0.081883 0.086369
v -0.067175 -0.067175 0.012000
vn -0.862886 -0.918755 0.969084
v -0.053033 -0.053033 0.038000
vn 0.007117 -1.456872 0.005199
v 0.009640 -0.092000 0.028063
vn -0.029986 -0.291256 -0.523323
v -0.009000 -0.091500 0.008000
vn -0.016039 -0.155788 -0.279916
v -0.056594 -0.072226 0.000000
vn -0.003650 0.052239 0.002032
v -0.055999 0.072279 0.012000
vn -0.156596 2.241201 0.087170
v -0.005838 0.074772 0.038000
vn -0.891412 1.151961 1.086796
v -0.047822 0.057775 0.038000
vn -0.582265 0.752455 0.709889
v -0.043921 0.060794 0.038000
vn -0.578799 0.216052 0.309944
v -0.071087 0.023907 0.038000
vn -0.557543 0.165106 0.237863
v -0.072643 0.018655 0.038000
vn 0.790835 0.830073 0.881657
v 0.050411 0.055531 0.038000
vn 0.821846 1.710460 1.144621
v 0.034921 0.066374 0.038000
vn 0.304094 0.632893 0.423525
v 0.029989 0.068743 0.038000
vn 0.559728 2.326293 0.795822
v 0.020189 0.072231 0.038000
vn 0.000000 -2.499823 0.013035
v -0.008700 -0.092000 0.028700
vn -0.001848 -1.978812 0.007844
v -0.009208 -0.092000 0.028580
vn -0.003025 -0.573872 0.001091
v -0.009634 -0.092000 0.028087
vn -0.008026 -1.522680 0.002894
v -0.010693 -0.091993 0.029070
vn -0.115514 -0.280315 -0.001058
v -0.062318 -0.070609 0.000000
vn -0.662111 -1.606737 -0.006067
v -0.010500 -0.092000 0.010000
vn -0.714573 -1.725143 0.000000
v -0.062318 -0.070609 0.012000
vn -1.029857 -2.733023 -0.583330
v -0.059525 -0.071661 0.000000
vn 0.007997 0.328283 0.056735
v -0.000912 0.074994 0.038000
vn 0.006004 0.246456 0.042594
v 0.004557 0.074861 0.038000
vn 0.061390 2.520071 0.435529
v 0.001414 0.075075 0.037207
vn 0.001741 1.220120 0.011678
v 0.001018 0.075100 0.034621
vn 0.084588 0.502726 0.110897
v 0.010010 0.074329 0.038000
vn -0.037446 0.076720 0.051854
v -0.061407 0.071012 0.012000
vn -0.820142 1.680299 1.135697
v -0.035093 0.066283 0.038000
vn -0.320179 0.655980 0.443370
v -0.030660 0.068447 0.038000
vn -0.246290 0.602076 0.350671
v -0.026100 0.070312 0.038000
vn -0.581645 2.281848 0.832052
v -0.020901 0.072028 0.038000
vn 0.673478 2.109172 0.972680
v 0.025409 0.070565 0.038000
vn -0.017446 -2.469436 0.000788
v -0.009700 -0.092000 0.027700
vn -0.497458 0.738460 0.636665
v -0.039834 0.063547 0.038000
vn -0.058724 0.087174 0.075157
v -0.063894 0.069755 0.012000
vn 0.949389 -0.949389 0.000000
v 0.066151 -0.068121 0.000000
vn 1.110721 -1.110721 0.000000
v 0.068121 -0.066151 0.000000
vn 0.184794 -0.133797 0.000000
v 0.069755 -0.063894 0.000000
vn 0.921199 -1.272318 0.000000
v 0.063894 -0.069755 0.000000
vn -1.110721 1.110721 0.000000
v -0.068121 0.066151 0.000000
vn -0.949389 0.949389 0.000000
v -0.066151 0.068121 0.000000
vn -0.201448 1.327444 0.000000
v -0.058753 0.071860 0.000000
vn -1.087525 0.787402 0.000000
v -0.069755 0.063894 0.000000
vn -1.401879 0.708615 0.000000
v -0.071012 0.061407 0.000000
vn -1.012401 -1.201019 0.000000
v -0.064893 -0.069099 0.000000
vn -0.855273 -1.014617 0.000000
v -0.067175 -0.067175 0.000000
vn -0.478248 1.496222 0.000000
v -0.061407 0.071012 0.000000
vn 0.000000 0.000000 0.847887
v 0.064201 -0.038771 0.038000
vn 0.000000 0.000000 0.901871
v -0.074941 0.002969 0.038000
vn 0.000000 0.000000 -0.013549
v -0.069099 -0.064893 0.000000
vn 0.000000 0.000000 -0.905488
v -0.063894 0.069755 0.000000
vn 0.000000 0.000000 -0.076461
v -0.072279 0.055999 0.000000
vn 0.000000 0.000000 -0.172939
v -0.071860 0.058753 0.000000
vn 0.020497 -2.474835 0.000711
v 0.009700 -0.092000 0.027700
# 185 vertices, 0 vertices normals

f 1//1 2//2 3//3
f 4//4 5//5 2//2
f 6//6 7//7 8//8
f 9//9 10//10 11//11
f 10//10 12//12 11//11
f 11//11 12//12 13//13
f 13//13 12//12 14//14
f 15//15 16//16 17//17
f 18//18 1//1 3//3
f 19//19 2//2 1//1
f 20//20 5//5 21//21
f 22//22 20//20 23//23
f 22//22 2//2 5//5
f 24//24 4//4 2//2
f 24//24 25//25 26//26
f 27//27 21//21 5//5
f 27//27 5//5 4//4
f 28//28 29//29 8//8
f 7//7 28//28 8//8
f 30//30 31//31 32//32
f 33//33 13//13 14//14
f 33//33 14//14 32//32
f 33//33 34//34 13//13
f 35//35 36//36 37//37
f 38//38 39//39 40//40
f 38//38 41//41 42//42
f 42//42 43//43 44//44
f 43//43 42//42 45//45
f 46//46 47//47 48//48
f 48//48 49//49 46//46
f 50//50 51//51 17//17
f 50//50 17//17 16//16
f 17//17 51//51 52//52
f 16//16 15//15 53//53
f 53//53 9//9 11//11
f 53//53 54//54 9//9
f 53//53 15//15 54//54
f 25//25 55//55 26//26
f 55//55 25//25 56//56
f 57//57 58//58 59//59
f 57//57 22//22 58//58
f 5//5 20//20 60//60
f 60//60 22//22 5//5
f 22//22 60//60 20//20
f 61//61 62//62 63//63
f 64//64 65//65 40//40
f 65//65 38//38 40//40
f 65//65 41//41 38//38
f 66//66 67//67 31//31
f 68//68 13//13 34//34
f 69//69 31//31 67//67
f 70//70 31//31 30//30
f 70//70 66//66 31//31
f 36//36 35//35 71//71
f 71//71 70//70 30//30
f 71//71 35//35 70//70
f 72//72 35//35 73//73
f 74//74 70//70 72//72
f 72//72 70//70 35//35
f 75//75 76//76 77//77
f 29//29 28//28 75//75
f 75//75 28//28 76//76
f 78//78 39//39 38//38
f 42//42 78//78 38//38
f 78//78 42//42 79//79
f 80//80 81//81 43//43
f 42//42 82//82 79//79
f 82//82 42//42 44//44
f 83//83 42//42 41//41
f 83//83 45//45 42//42
f 17//17 52//52 84//84
f 84//84 85//85 86//86
f 84//84 87//87 17//17
f 84//84 88//88 87//87
f 89//89 90//90 56//56
f 89//89 56//56 25//25
f 91//91 90//90 89//89
f 89//89 86//86 91//91
f 19//19 92//92 2//2
f 92//92 24//24 2//2
f 24//24 92//92 25//25
f 93//93 22//22 23//23
f 93//93 58//58 22//22
f 94//94 57//57 59//59
f 95//95 96//96 97//97
f 95//95 97//97 98//98
f 95//95 98//98 80//80
f 95//95 80//80 43//43
f 99//99 100//100 2//2
f 3//3 100//100 99//99
f 101//101 102//102 3//3
f 103//103 104//104 105//105
f 106//106 107//107 108//108
f 106//106 108//108 109//109
f 108//108 110//110 109//109
f 61//61 111//111 62//62
f 112//112 113//113 114//114
f 115//115 116//116 117//117
f 117//117 116//116 108//108
f 117//117 112//112 115//115
f 117//117 113//113 112//112
f 11//11 13//13 118//118
f 69//69 119//119 33//33
f 120//120 70//70 74//74
f 70//70 120//120 66//66
f 121//121 122//122 123//123
f 124//124 35//35 37//37
f 124//124 37//37 125//125
f 122//122 126//126 37//37
f 126//126 125//125 37//37
f 127//127 128//128 76//76
f 76//76 128//128 77//77
f 128//128 121//121 77//77
f 84//84 129//129 85//85
f 129//129 84//84 52//52
f 130//130 94//94 131//131
f 130//130 57//57 94//94
f 132//132 2//2 100//100
f 132//132 100//100 3//3
f 133//133 134//134 47//47
f 135//135 136//136 7//7
f 7//7 6//6 135//135
f 137//137 138//138 107//107
f 137//137 107//107 106//106
f 113//113 139//139 114//114
f 139//139 113//113 63//63
f 63//63 140//140 139//139
f 35//35 141//141 73//73
f 142//142 122//122 143//143
f 142//142 126//126 122//122
f 144//144 128//128 127//127
f 145//145 99//99 22//22
f 145//145 22//22 146//146
f 99//99 145//145 3//3
f 145//145 146//146 3//3
f 147//147 22//22 148//148
f 147//147 146//146 22//22
f 147//147 101//101 3//3
f 3//3 146//146 147//147
f 148//148 149//149 150//150
f 149//149 148//148 151//151
f 149//149 102//102 150//150
f 149//149 152//152 102//102
f 153//153 154//154 155//155
f 155//155 7//7 153//153
f 155//155 156//156 7//7
f 155//155 154//154 76//76
f 155//155 76//76 28//28
f 28//28 156//156 155//155
f 157//157 127//127 76//76
f 157//157 76//76 154//154
f 158//158 159//159 160//160
f 160//160 161//161 158//158
f 103//103 105//105 162//162
f 158//158 162//162 105//105
f 162//162 158//158 161//161
f 144//144 163//163 128//128
f 122//122 163//163 143//143
f 128//128 163//163 122//122
f 164//164 148//148 150//150
f 164//164 147//147 148//148
f 150//150 102//102 164//164
f 102//102 101//101 164//164
f 101//101 147//147 164//164
f 138//138 165//165 166//166
f 166//166 107//107 138//138
f 165//165 159//159 166//166
f 159//159 158//158 166//166
f 15//15 87//87 54//54
f 17//17 87//87 15//15
f 89//89 167//167 168//168
f 25//25 167//167 89//89
f 89//89 169//169 86//86
f 92//92 170//170 167//167
f 92//92 167//167 25//25
f 92//92 1//1 170//170
f 92//92 19//19 1//1
f 171//171 108//108 172//172
f 172//172 108//108 107//107
f 135//135 6//6 173//173
f 135//135 173//173 105//105
f 174//174 108//108 171//171
f 174//174 117//117 108//108
f 174//174 175//175 113//113
f 176//176 57//57 177//177
f 130//130 177//177 57//57
f 149//149 57//57 176//176
f 149//149 151//151 57//57
f 158//158 173//173 178//178
f 158//158 105//105 173//173
f 163//163 68//68 34//34
f 163//163 56//56 90//90
f 163//163 50//50 16//16
f 163//163 157//157 154//154
f 111//111 163//163 62//62
f 163//163 144//144 127//127
f 163//163 179//179 85//85
f 81//81 163//163 44//44
f 20//20 163//163 23//23
f 131//131 163//163 96//96
f 97//97 163//163 98//98
f 163//163 4//4 24//24
f 163//163 116//116 115//115
f 163//163 27//27 4//4
f 163//163 110//110 116//116
f 72//72 163//163 74//74
f 163//163 126//126 142//142
f 163//163 125//125 126//126
f 53//53 163//163 16//16
f 163//163 55//55 56//56
f 163//163 20//20 21//21
f 163//163 24//24 26//26
f 21//21 27//27 163//163
f 163//163 82//82 44//44
f 163//163 136//136 104//104
f 94//94 163//163 131//131
f 163//163 124//124 125//125
f 163//163 80//80 98//98
f 78//78 163//163 39//39
f 163//163 52//52 51//51
f 163//163 53//53 11//11
f 179//179 163//163 91//91
f 55//55 163//163 26//26
f 163//163 90//90 91//91
f 163//163 59//59 58//58
f 163//163 153//153 136//136
f 163//163 165//165 138//138
f 163//163 140//140 62//62
f 112//112 163//163 115//115
f 163//163 72//72 73//73
f 163//163 97//97 96//96
f 163//163 81//81 80//80
f 163//163 93//93 23//23
f 163//163 94//94 59//59
f 163//163 112//112 114//114
f 118//118 163//163 11//11
f 119//119 163//163 34//34
f 163//163 120//120 74//74
f 180//180 163//163 111//111
f 163//163 141//141 124//124
f 129//129 163//163 85//85
f 139//139 163//163 114//114
f 163//163 180//180 40//40
f 141//141 163//163 73//73
f 163//163 142//142 143//143
f 163//163 162//162 161//161
f 157//157 163//163 127//127
f 162//162 163//163 103//103
f 181//181 32//32 14//14
f 181//181 168//168 167//167
f 9//9 54//54 181//181
f 41//41 65//65 181//181
f 134//134 152//152 181//181
f 36//36 71//71 181//181
f 181//181 18//18 49//49
f 54//54 87//87 181//181
f 12//12 10//10 181//181
f 8//8 29//29 181//181
f 181//181 14//14 12//12
f 45//45 83//83 181//181
f 181//181 49//49 48//48
f 181//181 6//6 8//8
f 172//172 182//182 181//181
f 181//181 10//10 9//9
f 181//181 64//64 183//183
f 181//181 65//65 64//64
f 47//47 181//181 48//48
f 29//29 75//75 181//181
f 181//181 1//1 18//18
f 87//87 88//88 181//181
f 181//181 47//47 134//134
f 167//167 170//170 181//181
f 30//30 32//32 181//181
f 181//181 88//88 169//169
f 181//181 170//170 1//1
f 181//181 71//71 30//30
f 181//181 75//75 77//77
f 181//181 83//83 41//41
f 181//181 121//121 123//123
f 171//171 172//172 181//181
f 178//178 173//173 181//181
f 77//77 121//121 181//181
f 152//152 149//149 181//181
f 181//181 182//182 178//178
f 181//181 174//174 171//171
f 183//183 184//184 181//181
f 176//176 177//177 181//181
f 181//181 95//95 43//43
f 181//181 130//130 95//95
f 166//166 172//172 107//107
f 166//166 182//182 172//172
f 166//166 178//178 182//182
f 166//166 158//158 178//178
f 33//33 32//32 31//31
f 18//18 46//46 49//49
f 46//46 18//18 3//3
f 86//86 179//179 91//91
f 179//179 86//86 85//85
f 156//156 28//28 7//7
f 7//7 136//136 153//153
f 69//69 33//33 31//31
f 36//36 123//123 37//37
f 37//37 123//123 122//122
f 81//81 44//44 43//43
f 84//84 169//169 88//88
f 84//84 86//86 169//169
f 185//185 3//3 2//2
f 99//99 2//2 22//22
f 110//110 108//108 116//116
f 140//140 63//63 62//62
f 118//118 13//13 68//68
f 33//33 119//119 34//34
f 122//122 121//121 128//128
f 130//130 131//131 96//96
f 95//95 130//130 96//96
f 148//148 22//22 57//57
f 57//57 151//151 148//148
f 132//132 185//185 2//2
f 185//185 132//132 3//3
f 152//152 134//134 102//102
f 102//102 134//134 133//133
f 46//46 133//133 47//47
f 133//133 46//46 3//3
f 3//3 102//102 133//133
f 135//135 104//104 136//136
f 135//135 105//105 104//104
f 180//180 64//64 40//40
f 180//180 111//111 61//61
f 180//180 183//183 64//64
f 180//180 61//61 183//183
f 124//124 141//141 35//35
f 89//89 168//168 169//169
f 174//174 113//113 117//117
f 183//183 61//61 184//184
f 184//184 61//61 63//63
f 175//175 184//184 113//113
f 63//63 113//113 184//184
f 163//163 118//118 68//68
f 163//163 119//119 69//69
f 163//163 58//58 93//93
f 163//163 40//40 39//39
f 51//51 50//50 163//163
f 163//163 67//67 66//66
f 163//163 69//69 67//67
f 163//163 66//66 120//120
f 163//163 129//129 52//52
f 163//163 78//78 79//79
f 82//82 163//163 79//79
f 163//163 104//104 103//103
f 163//163 106//106 109//109
f 163//163 137//137 106//106
f 110//110 163//163 109//109
f 163//163 159//159 165//165
f 163//163 139//139 140//140
f 163//163 154//154 153//153
f 163//163 161//161 160//160
f 138//138 137//137 163//163
f 163//163 160//160 159//159
f 181//181 123//123 36//36
f 181//181 184//184 175//175
f 169//169 168//168 181//181
f 175//175 174//174 181//181
f 181//181 173//173 6//6
f 181//181 149//149 176//176
f 43//43 45//45 181//181
f 181//181 177//177 130//130
# 366 faces, 0 coords texture

# End of File
